<svg width="40" height="40" viewBox="0 0 40 40" fill="none" xmlns="http://www.w3.org/2000/svg">
<g clip-path="url(#clip0_201_9228)">
<rect width="40" height="40" rx="10" fill="white"/>
<path d="M15.3618 9.952C13.8498 10 12.6858 10.576 11.8698 11.68C11.0778 12.784 10.6818 14.692 10.6818 17.404C10.6818 18.292 10.7658 18.916 10.9338 19.276C11.1018 19.612 11.1858 19.804 11.1858 19.852C9.88977 19.852 8.91777 19.588 8.26977 19.06C7.64577 18.508 7.33377 17.608 7.33377 16.36C7.33377 14.656 7.75377 13.108 8.59377 11.716C9.43377 10.3 10.7658 9.16 12.5898 8.296C14.4378 7.432 16.7778 7 19.6098 7C20.1858 7 20.9538 7.06 21.9138 7.18C23.6418 7.348 24.8658 7.432 25.5858 7.432C26.8578 7.432 27.9378 7.288 28.8258 7C28.7538 7.216 28.6218 7.696 28.4298 8.44C28.2378 9.16 27.8898 9.784 27.3858 10.312C26.9058 10.816 26.2458 11.152 25.4058 11.32C23.9898 11.32 22.3098 11.092 20.3658 10.636L18.8538 17.8H24.1098L23.5338 20.464H18.2778L15.3618 34H10.1778L15.3618 9.952Z" fill="black"/>
<path d="M27.4932 34.144C26.7012 34.144 26.0292 33.868 25.4772 33.316C24.9252 32.764 24.6492 32.092 24.6492 31.3C24.6492 30.508 24.9252 29.836 25.4772 29.284C26.0292 28.708 26.7012 28.42 27.4932 28.42C28.2852 28.42 28.9572 28.708 29.5092 29.284C30.0852 29.836 30.3732 30.508 30.3732 31.3C30.3732 32.092 30.0852 32.764 29.5092 33.316C28.9572 33.868 28.2852 34.144 27.4932 34.144Z" fill="#FF7426"/>
</g>
<defs>
<clipPath id="clip0_201_9228">
<rect width="40" height="40" rx="10" fill="white"/>
</clipPath>
</defs>
</svg>
