<svg width="125" height="28" viewBox="0 0 125 28" fill="none" xmlns="http://www.w3.org/2000/svg">
<rect width="125" height="28" fill="white"/>
<path d="M11.568 7.968C10.56 8 9.784 8.384 9.24 9.12C8.712 9.856 8.448 11.128 8.448 12.936C8.448 13.528 8.504 13.944 8.616 14.184C8.728 14.408 8.784 14.536 8.784 14.568C7.92 14.568 7.272 14.392 6.84 14.04C6.424 13.672 6.216 13.072 6.216 12.24C6.216 11.104 6.496 10.072 7.056 9.144C7.616 8.2 8.504 7.44 9.72 6.864C10.952 6.288 12.512 6 14.4 6C14.784 6 15.296 6.04 15.936 6.12C17.088 6.232 17.904 6.288 18.384 6.288C19.232 6.288 19.952 6.192 20.544 6C20.496 6.144 20.408 6.464 20.28 6.96C20.152 7.44 19.92 7.856 19.584 8.208C19.264 8.544 18.824 8.768 18.264 8.88C17.32 8.88 16.2 8.728 14.904 8.424L13.896 13.2H17.4L17.016 14.976H13.512L11.568 24H8.112L11.568 7.968ZM20.9996 24.096C19.8156 24.096 18.8796 23.792 18.1916 23.184C17.5036 22.576 17.1596 21.616 17.1596 20.304C17.1596 19.216 17.3836 18.008 17.8316 16.68C18.2796 15.352 18.9996 14.208 19.9916 13.248C20.9836 12.272 22.2316 11.784 23.7356 11.784C25.7836 11.784 26.8076 13.064 26.8076 15.624V15.648C26.8556 15.664 26.9436 15.672 27.0716 15.672C27.5996 15.672 28.2076 15.536 28.8956 15.264C29.5836 14.976 30.2076 14.632 30.7676 14.232L30.9836 14.88C30.5196 15.376 29.9116 15.8 29.1596 16.152C28.4236 16.488 27.6156 16.728 26.7356 16.872C26.6076 18.328 26.2796 19.6 25.7516 20.688C25.2236 21.776 24.5436 22.616 23.7116 23.208C22.8796 23.8 21.9756 24.096 20.9996 24.096ZM21.9596 21.936C22.3436 21.936 22.7276 21.72 23.1116 21.288C23.4956 20.84 23.8316 20.24 24.1196 19.488C24.4076 18.72 24.6156 17.872 24.7436 16.944C24.3116 16.848 24.0956 16.512 24.0956 15.936C24.0956 15.28 24.3436 14.848 24.8396 14.64C24.8076 14.112 24.7276 13.752 24.5996 13.56C24.4716 13.352 24.2476 13.248 23.9276 13.248C23.3996 13.248 22.8876 13.632 22.3916 14.4C21.8956 15.168 21.4956 16.088 21.1916 17.16C20.8876 18.232 20.7356 19.176 20.7356 19.992C20.7356 20.76 20.8236 21.28 20.9996 21.552C21.1756 21.808 21.4956 21.936 21.9596 21.936ZM32.0265 24.096C30.8425 24.096 29.9065 23.792 29.2185 23.184C28.5305 22.576 28.1865 21.616 28.1865 20.304C28.1865 19.216 28.4105 18.008 28.8585 16.68C29.3065 15.352 30.0265 14.208 31.0185 13.248C32.0105 12.272 33.2585 11.784 34.7625 11.784C36.8105 11.784 37.8345 13.064 37.8345 15.624V15.648C37.8825 15.664 37.9705 15.672 38.0985 15.672C38.6265 15.672 39.2345 15.536 39.9225 15.264C40.6105 14.976 41.2345 14.632 41.7945 14.232L42.0105 14.88C41.5465 15.376 40.9385 15.8 40.1865 16.152C39.4505 16.488 38.6425 16.728 37.7625 16.872C37.6345 18.328 37.3065 19.6 36.7785 20.688C36.2505 21.776 35.5705 22.616 34.7385 23.208C33.9065 23.8 33.0025 24.096 32.0265 24.096ZM32.9865 21.936C33.3705 21.936 33.7545 21.72 34.1385 21.288C34.5225 20.84 34.8585 20.24 35.1465 19.488C35.4345 18.72 35.6425 17.872 35.7705 16.944C35.3385 16.848 35.1225 16.512 35.1225 15.936C35.1225 15.28 35.3705 14.848 35.8665 14.64C35.8345 14.112 35.7545 13.752 35.6265 13.56C35.4985 13.352 35.2745 13.248 34.9545 13.248C34.4265 13.248 33.9145 13.632 33.4185 14.4C32.9225 15.168 32.5225 16.088 32.2185 17.16C31.9145 18.232 31.7625 19.176 31.7625 19.992C31.7625 20.76 31.8505 21.28 32.0265 21.552C32.2025 21.808 32.5225 21.936 32.9865 21.936ZM42.4294 24.144C41.5174 24.144 40.7574 23.832 40.1494 23.208C39.5414 22.584 39.2374 21.608 39.2374 20.28C39.2374 19.096 39.4694 17.856 39.9334 16.56C40.4134 15.248 41.1174 14.144 42.0454 13.248C42.9894 12.336 44.1094 11.88 45.4054 11.88C46.0614 11.88 46.5494 11.992 46.8694 12.216C47.1894 12.44 47.3494 12.736 47.3494 13.104V13.2L48.5254 7.68L52.0774 7.2L49.3174 20.16C49.2534 20.4 49.2214 20.656 49.2214 20.928C49.2214 21.248 49.2934 21.48 49.4374 21.624C49.5974 21.752 49.8534 21.816 50.2054 21.816C50.6534 21.816 51.0374 21.624 51.3574 21.24C51.6934 20.856 51.9574 20.344 52.1494 19.704H53.1574C52.1814 22.568 50.5734 24 48.3334 24C47.6774 24 47.1414 23.824 46.7254 23.472C46.3254 23.12 46.0774 22.608 45.9814 21.936C45.5654 22.576 45.0614 23.104 44.4694 23.52C43.8934 23.936 43.2134 24.144 42.4294 24.144ZM43.9894 21.816C44.3734 21.816 44.7574 21.64 45.1414 21.288C45.5414 20.936 45.8134 20.448 45.9574 19.824V19.704L47.1334 14.208C46.9894 13.648 46.6614 13.368 46.1494 13.368C45.5094 13.368 44.9334 13.744 44.4214 14.496C43.9094 15.232 43.5094 16.128 43.2214 17.184C42.9334 18.224 42.7894 19.144 42.7894 19.944C42.7894 20.744 42.9014 21.256 43.1254 21.48C43.3654 21.704 43.6534 21.816 43.9894 21.816ZM56.6467 10.704C56.1187 10.704 55.6707 10.52 55.3027 10.152C54.9347 9.784 54.7507 9.336 54.7507 8.808C54.7507 8.28 54.9347 7.832 55.3027 7.464C55.6707 7.08 56.1187 6.888 56.6467 6.888C57.1747 6.888 57.6227 7.08 57.9907 7.464C58.3747 7.832 58.5667 8.28 58.5667 8.808C58.5667 9.336 58.3747 9.784 57.9907 10.152C57.6227 10.52 57.1747 10.704 56.6467 10.704ZM55.0147 24.144C54.2467 24.144 53.6227 23.904 53.1427 23.424C52.6787 22.944 52.4467 22.224 52.4467 21.264C52.4467 20.864 52.5107 20.344 52.6387 19.704L54.2707 12H57.7267L55.9987 20.16C55.9347 20.4 55.9027 20.656 55.9027 20.928C55.9027 21.248 55.9747 21.48 56.1187 21.624C56.2787 21.752 56.5347 21.816 56.8867 21.816C57.3507 21.816 57.7827 21.624 58.1827 21.24C58.5827 20.84 58.8707 20.328 59.0467 19.704H60.0547C59.4627 21.432 58.7027 22.608 57.7747 23.232C56.8467 23.84 55.9267 24.144 55.0147 24.144ZM62.9492 24.144C61.7652 24.144 60.8452 23.84 60.1892 23.232C59.5332 22.608 59.2052 21.64 59.2052 20.328C59.2052 19.224 59.4212 18.008 59.8532 16.68C60.2852 15.352 60.9892 14.208 61.9652 13.248C62.9412 12.272 64.1812 11.784 65.6852 11.784C67.4452 11.784 68.3252 12.552 68.3252 14.088C68.3252 14.984 68.0692 15.808 67.5572 16.56C67.0452 17.312 66.3652 17.92 65.5172 18.384C64.6692 18.832 63.7652 19.088 62.8052 19.152C62.7732 19.632 62.7572 19.952 62.7572 20.112C62.7572 20.896 62.8932 21.432 63.1652 21.72C63.4372 21.992 63.8772 22.128 64.4852 22.128C65.3492 22.128 66.0852 21.928 66.6932 21.528C67.3172 21.128 67.9972 20.52 68.7332 19.704H69.5492C67.7732 22.664 65.5732 24.144 62.9492 24.144ZM62.9972 18C63.5892 17.968 64.1492 17.76 64.6772 17.376C65.2212 16.992 65.6532 16.504 65.9732 15.912C66.3092 15.32 66.4772 14.696 66.4772 14.04C66.4772 13.384 66.2772 13.056 65.8772 13.056C65.3012 13.056 64.7332 13.56 64.1732 14.568C63.6292 15.576 63.2372 16.72 62.9972 18ZM71.5841 24.144C70.8161 24.144 70.1921 23.904 69.7121 23.424C69.2481 22.944 69.0161 22.224 69.0161 21.264C69.0161 20.864 69.0801 20.344 69.2081 19.704L71.7761 7.68L75.3281 7.2L72.5681 20.16C72.5041 20.4 72.4721 20.656 72.4721 20.928C72.4721 21.248 72.5441 21.48 72.6881 21.624C72.8481 21.752 73.1041 21.816 73.4561 21.816C73.9201 21.816 74.3521 21.624 74.7521 21.24C75.1521 20.84 75.4401 20.328 75.6161 19.704H76.6241C76.0321 21.432 75.2721 22.608 74.3441 23.232C73.4161 23.84 72.4961 24.144 71.5841 24.144ZM78.9666 24.144C78.0546 24.144 77.2946 23.832 76.6866 23.208C76.0786 22.584 75.7746 21.608 75.7746 20.28C75.7746 19.096 76.0066 17.856 76.4706 16.56C76.9506 15.248 77.6546 14.144 78.5826 13.248C79.5266 12.336 80.6466 11.88 81.9426 11.88C82.5986 11.88 83.0866 11.992 83.4066 12.216C83.7266 12.44 83.8866 12.736 83.8866 13.104V13.272L84.1506 12H87.6066L85.8786 20.16C85.8146 20.4 85.7826 20.656 85.7826 20.928C85.7826 21.616 86.1106 21.96 86.7666 21.96C87.2146 21.96 87.5986 21.752 87.9186 21.336C88.2546 20.92 88.5186 20.376 88.7106 19.704H89.7186C89.1266 21.432 88.3906 22.608 87.5106 23.232C86.6466 23.84 85.7746 24.144 84.8946 24.144C84.2226 24.144 83.6786 23.96 83.2626 23.592C82.8626 23.208 82.6226 22.656 82.5426 21.936C82.0786 22.592 81.5586 23.128 80.9826 23.544C80.4226 23.944 79.7506 24.144 78.9666 24.144ZM80.5266 21.816C80.9266 21.816 81.3186 21.632 81.7026 21.264C82.1026 20.88 82.3746 20.36 82.5186 19.704L83.6706 14.28C83.6706 14.072 83.5906 13.872 83.4306 13.68C83.2706 13.472 83.0226 13.368 82.6866 13.368C82.0466 13.368 81.4706 13.744 80.9586 14.496C80.4466 15.232 80.0466 16.128 79.7586 17.184C79.4706 18.224 79.3266 19.144 79.3266 19.944C79.3266 20.744 79.4386 21.256 79.6626 21.48C79.9026 21.704 80.1906 21.816 80.5266 21.816ZM97.8634 24.144C96.8874 24.144 96.1674 23.888 95.7034 23.376C95.2554 22.848 95.0314 22.2 95.0314 21.432C95.0314 21.096 95.0714 20.72 95.1514 20.304C95.2314 19.872 95.3114 19.456 95.3914 19.056C95.4874 18.656 95.5514 18.4 95.5834 18.288C95.7114 17.728 95.8314 17.176 95.9434 16.632C96.0554 16.088 96.1114 15.648 96.1114 15.312C96.1114 14.496 95.8234 14.088 95.2474 14.088C94.8314 14.088 94.4634 14.296 94.1434 14.712C93.8234 15.112 93.5674 15.64 93.3754 16.296L91.7434 24H88.2874L90.8314 12H94.2874L94.0234 13.248C94.8234 12.352 95.7594 11.904 96.8314 11.904C97.6474 11.904 98.2954 12.128 98.7754 12.576C99.2554 13.024 99.4954 13.704 99.4954 14.616C99.4954 15.08 99.4394 15.6 99.3274 16.176C99.2154 16.736 99.0554 17.424 98.8474 18.24C98.7194 18.736 98.5994 19.224 98.4874 19.704C98.3914 20.168 98.3434 20.536 98.3434 20.808C98.3434 21.128 98.4154 21.376 98.5594 21.552C98.7034 21.728 98.9514 21.816 99.3034 21.816C99.7834 21.816 100.167 21.648 100.455 21.312C100.743 20.96 101.031 20.424 101.319 19.704H102.327C101.735 21.464 101.047 22.648 100.263 23.256C99.4954 23.848 98.6954 24.144 97.8634 24.144ZM104.677 24.144C103.765 24.144 103.005 23.832 102.397 23.208C101.789 22.584 101.485 21.608 101.485 20.28C101.485 19.096 101.717 17.856 102.181 16.56C102.661 15.248 103.365 14.144 104.293 13.248C105.237 12.336 106.357 11.88 107.653 11.88C108.309 11.88 108.797 11.992 109.117 12.216C109.437 12.44 109.597 12.736 109.597 13.104V13.2L110.773 7.68L114.325 7.2L111.565 20.16C111.501 20.4 111.469 20.632 111.469 20.856C111.469 21.496 111.797 21.816 112.453 21.816C112.741 21.816 112.997 21.768 113.221 21.672C113.157 22.472 112.869 23.088 112.357 23.52C111.861 23.936 111.269 24.144 110.581 24.144C109.941 24.144 109.397 23.984 108.949 23.664C108.517 23.328 108.229 22.824 108.085 22.152C107.125 23.48 105.989 24.144 104.677 24.144ZM106.237 21.816C106.589 21.816 106.941 21.664 107.293 21.36C107.661 21.056 107.933 20.632 108.109 20.088L108.205 19.704L109.381 14.208C109.237 13.648 108.909 13.368 108.397 13.368C107.757 13.368 107.181 13.744 106.669 14.496C106.157 15.232 105.757 16.128 105.469 17.184C105.181 18.224 105.037 19.144 105.037 19.944C105.037 20.744 105.149 21.256 105.373 21.48C105.613 21.704 105.901 21.816 106.237 21.816Z" fill="black"/>
<path d="M116.331 24.096C115.803 24.096 115.355 23.912 114.987 23.544C114.619 23.176 114.435 22.728 114.435 22.2C114.435 21.672 114.619 21.224 114.987 20.856C115.355 20.472 115.803 20.28 116.331 20.28C116.859 20.28 117.307 20.472 117.675 20.856C118.059 21.224 118.251 21.672 118.251 22.2C118.251 22.728 118.059 23.176 117.675 23.544C117.307 23.912 116.859 24.096 116.331 24.096Z" fill="#FF7426"/>
</svg>
